<svg xmlns="http://www.w3.org/2000/svg" viewBox="0 0 108.4 122.22"><defs><style>.cls-1{fill:#e0e1e2;}.cls-1,.cls-2,.cls-3{stroke:#808285;stroke-linecap:round;stroke-linejoin:round;}.cls-1,.cls-2{stroke-width:1.88px;}.cls-2,.cls-3{fill:#fff;}.cls-3{stroke-width:1.23px;}</style></defs><g id="Layer_1" data-name="Layer 1"><path class="cls-1" d="M66.41,34.27c-3.64,2.68-1.52,9.21-1.52,9.21a47,47,0,0,1-6.62,3.43c-2.79,1-4.15,3.67-3.07,5.75S55.56,57,54.68,60s.88,7.18,1.44,9.09-1.92,5.59-1.28,8.62.1,15.36.1,15.36c-1-.61-1.91-1-1.91.7l-1.55,0c.75-5.55.45-57.75.45-57.75-1.48-2-8.94-.8-8.94-.8s-1.23-3.43-.26-4.4c0,0,1.41-2.29,2.29-2.55a14.32,14.32,0,0,1,4.31.35,15.37,15.37,0,0,1,8,0s4.66-.88,8,.27A6,6,0,0,1,66.41,34.27Z"/><path class="cls-2" d="M51.93,36s.3,52.2-.45,57.75c-4.74.08-18.78.27-20.9,0V91.39s-2.76-8.76,0-11.53c0,0-3.56-10.61,0-14.17,0,0-1.13-5.66,0-8.49-.19.4-1.7,3.61-3.64,3.61,0,0,.22,6.82-2.68,8.49,0,0,3.52,6.34,2.2,11.09,0,0,1.85,5.19.44,8.1a15.76,15.76,0,0,1-9.95,1.93s-1.93-2.9-1.4-8.18c0,0-2.65-6.43-1.5-12.59,0,0-1.76-7,2.2-12.06,0,0-.62-6,5.54-11.09,0,0,5.2-10.29,21.21-11.26C43,35.24,50.45,34,51.93,36Z"/><path class="cls-2" d="M92.81,83.38s.44,7.92-2,8.89c0,0-8.1-.79-9.59-2.91,0,0-1.14-4.4,1.67-7,0,0-1.76-6.25,1.06-10.3,0,0-2.82-5.11-2.47-8.45,0,0-3.25-3.52-4.22-6.87.37,2.27.9,6.45.08,7.84a24.46,24.46,0,0,1,.45,14.34s1.4,7.57-.62,12.06c0,0,1.67,2-.44,2.47s-18.75.93-20.15.5a8.14,8.14,0,0,1-1.61-.85s.54-12.33-.1-15.36,1.83-6.7,1.28-8.62S53.8,63,54.68,60s1.6-5.27.52-7.34.28-4.71,3.07-5.75a47,47,0,0,0,6.62-3.43S62.77,37,66.41,34.27c0,0,13.64,2.73,20.41,13.65,0,0,6.52,6.86,5.72,12,0,0,3.52,5.81,1.67,12.15C94.21,72,95.54,80.21,92.81,83.38Z"/><path class="cls-3" d="M84.1,62.4s4.73-.11,6-1.44"/><path class="cls-3" d="M85.71,71.92s4.5.69,5.89.23"/><path class="cls-3" d="M84.67,82.42s4.45,1,5.77.57"/><path class="cls-3" d="M58.83,77.4a43.19,43.19,0,0,0,14.88,1.38"/><path class="cls-3" d="M77.87,53.28s4-2.54,4.73-4.5"/><path class="cls-3" d="M33.9,79S45,80.76,49.36,79"/><path class="cls-3" d="M34.48,66.32s11,.81,14,0"/><path class="cls-3" d="M58.25,64.4s11.92,1.2,16.34,0"/><path class="cls-3" d="M18.21,81.78s4.27-.23,5.42-1"/><path class="cls-3" d="M18.21,58.07S22,60,24.85,59.8"/><path class="cls-3" d="M16.19,69.37s4.07.47,5.89-.4"/><path class="cls-3" d="M29.65,54.64s-4.07-7-3-10"/></g></svg>