<svg xmlns="http://www.w3.org/2000/svg" viewBox="0 0 108.4 122.22"><defs><style>.cls-1{fill:#e6e7e8;stroke-miterlimit:10;}.cls-1,.cls-2{stroke:#231f20;stroke-width:1.75px;}.cls-2{fill:none;stroke-linecap:round;stroke-linejoin:round;}</style></defs><g id="Layer_1" data-name="Layer 1"><path class="cls-1" d="M88,68.76A13.13,13.13,0,0,1,74.78,81.7H31.88a9.8,9.8,0,1,1,0-19.59,10.31,10.31,0,0,1,2.37.27A18,18,0,0,1,33.42,57C33.42,46.71,42,38.4,52.56,38.4c10.36,0,18.79,8,19.14,17.93A13.22,13.22,0,0,1,88,68.76Z"/><path class="cls-2" d="M38.72,52.37a13.12,13.12,0,0,0,0,9"/><path class="cls-2" d="M40.8,47.6a9.77,9.77,0,0,1,4.58-3.31"/></g></svg>