<svg xmlns="http://www.w3.org/2000/svg" viewBox="0 0 108.4 122.22"><defs><style>.cls-1{fill:#fff;stroke-width:3px;}.cls-1,.cls-2,.cls-3{stroke:#808285;stroke-linecap:round;stroke-linejoin:round;}.cls-2{fill:none;stroke-width:1.5px;}.cls-3{fill:#e0e1e2;}</style></defs><g id="Layer_1" data-name="Layer 1"><path class="cls-1" d="M65.19,40c.93.07,6.81,1.23,8.12,4.33a48.86,48.86,0,0,1,4.33,15.54c.54,7,.31,8.9.31,8.9A73,73,0,0,0,79,76.23c.47,1.39.7,14.08.7,14.08a3.7,3.7,0,0,1-1.31,1.93,35.41,35.41,0,0,0,0,4.13,13.55,13.55,0,0,1-5.19.51s-1.39.54-1.31-4.72c0,0-5.52-17.43-5.21-22.79,0,0-.62,9.8.72,13.2s.41,12-.2,12.27c0,0-.11,2.62-.31,3.72a57.33,57.33,0,0,1-15.7,0,99.47,99.47,0,0,0-13.38.55s-1.55.68-1.76-2.92c-.41-2.07-1.65-3.82-1.65-7s1.34-11.34.11-15.57c0,0-2.48,15.06-4.7,18.1v4.49s-5.1.41-6,0a33,33,0,0,1,0-4.49s-1.37-1-1.13-10.21S26.44,48.39,29,43.67c0,0,2.55-3.48,8.43-4.33,0,0,3.7-1.11,1-3.48s-4.33-4.23-1.55-10.42S41.1,16,46.16,15.13s11.77-.52,14.76,2,2.79,7,4.64,9.9a8,8,0,0,1-.41,9.48C62.88,39.05,65.19,40,65.19,40Z"/><path class="cls-2" d="M46.91,39.84a5.59,5.59,0,0,0,.72,3.64c1.06,1.6-.39,3.65-.39,3.65"/><path class="cls-2" d="M55,39.84a9.66,9.66,0,0,0,0,2.84A29.31,29.31,0,0,1,55.62,46"/><path class="cls-2" d="M61.39,79.46s-.21,4.23.5,5.68a11,11,0,0,1,.55,4.23"/><path class="cls-2" d="M40,80.71a13.82,13.82,0,0,0,.34,4.6c.6,1.61,0,4.74,0,4.74"/><path class="cls-3" d="M62.12,33.21A1.51,1.51,0,0,1,61,34.62c-1.61.37-8.42,1.72-9.77,3,0,0-4.37-2.67-8.19-2.9-4-.23-3.11-5.35-2.13-6.24s2.5-4.88,2.5-5.77,2.76-2.39,5.14-2.39,8-.8,9.6,1.06.81,3.28,2.07,4.26C61.22,26.4,62.23,30.91,62.12,33.21Z"/></g></svg>