<svg xmlns="http://www.w3.org/2000/svg" viewBox="0 0 108.4 122.22"><defs><style>.cls-1{fill:#5c5c5c;}.cls-1,.cls-10,.cls-2,.cls-3,.cls-4,.cls-5,.cls-7,.cls-8,.cls-9{stroke:#231f20;}.cls-1,.cls-10,.cls-11,.cls-2,.cls-4,.cls-8,.cls-9{stroke-linecap:round;stroke-linejoin:round;}.cls-10,.cls-11,.cls-2,.cls-4,.cls-8,.cls-9{fill:none;}.cls-2{stroke-width:0.62px;}.cls-3{fill:#27aae1;}.cls-3,.cls-5,.cls-7{stroke-miterlimit:10;}.cls-4{stroke-width:0.5px;}.cls-5{fill:#f6af2d;}.cls-6{fill:#231f20;}.cls-7{fill:#e6e7e8;}.cls-8{stroke-width:0.47px;}.cls-10{stroke-width:0.75px;}.cls-11{stroke:#808285;stroke-width:4.11px;}</style></defs><g id="Layer_1" data-name="Layer 1"><path class="cls-1" d="M36.77,46a28.2,28.2,0,0,1,2,2.54,10.45,10.45,0,0,1,2.06-2.89s5.15-4.16,3.5-15.84c-1.53-2.18-12.26-1.31-13,3.93C31.45,38.8,34.91,43.7,36.77,46Z"/><path class="cls-2" d="M32.13,38s4.34,3.89,12.52-3.1"/><path class="cls-2" d="M34.38,42.65s3.31,3.22,9.44-2.21"/><path class="cls-2" d="M44.33,29.84c.6,2.12-1.67,4.25-5.58,5.59-3.13,1.07-6.26.61-7-1-.59-1.31,1-3.07,3.47-3.93,2-.68,4-.39,4.47.66.38.84-.61,2-2.22,2.52-1.28.43-2.56.24-2.86-.43S35,32,36,31.62"/><path class="cls-3" d="M59,39.93a5.78,5.78,0,0,1-11.56,0c0-3.19,5.78-10.75,5.78-10.75S59,36.74,59,39.93Z"/><line class="cls-4" x1="54.61" y1="32.96" x2="55.79" y2="34.81"/><circle class="cls-5" cx="69.78" cy="38.65" r="7.21"/><polygon class="cls-6" points="73.09 30.09 73.34 30.73 73.58 31.36 72.73 31.03 71.88 30.7 72.48 30.4 73.09 30.09"/><polygon class="cls-6" points="75.96 31.87 75.96 32.55 75.96 33.22 75.28 32.61 74.61 31.99 75.28 31.93 75.96 31.87"/><polygon class="cls-6" points="77.99 34.56 77.74 35.19 77.5 35.82 77.09 35 76.69 34.18 77.34 34.37 77.99 34.56"/><polygon class="cls-6" points="78.91 37.8 78.45 38.3 78 38.8 77.92 37.89 77.83 36.98 78.37 37.39 78.91 37.8"/><polygon class="cls-6" points="78.6 41.16 77.99 41.46 77.39 41.76 77.64 40.88 77.89 40 78.24 40.58 78.6 41.16"/><polygon class="cls-6" points="77.1 44.17 76.42 44.24 75.75 44.3 76.3 43.57 76.85 42.84 76.97 43.51 77.1 44.17"/><polygon class="cls-6" points="74.61 46.44 73.95 46.26 73.3 46.08 74.08 45.59 74.86 45.11 74.73 45.78 74.61 46.44"/><polygon class="cls-6" points="71.46 47.66 70.92 47.25 70.38 46.85 71.28 46.68 72.18 46.51 71.82 47.08 71.46 47.66"/><polygon class="cls-6" points="68.09 47.66 67.73 47.08 67.38 46.51 68.28 46.68 69.18 46.85 68.64 47.25 68.09 47.66"/><polygon class="cls-6" points="64.95 46.44 64.83 45.78 64.7 45.11 65.48 45.59 66.26 46.08 65.6 46.26 64.95 46.44"/><polygon class="cls-6" points="62.46 44.17 62.58 43.51 62.71 42.84 63.26 43.57 63.81 44.3 63.14 44.24 62.46 44.17"/><polygon class="cls-6" points="60.96 41.16 61.31 40.58 61.67 40 61.92 40.88 62.17 41.76 61.56 41.46 60.96 41.16"/><polygon class="cls-6" points="60.65 37.8 61.19 37.39 61.73 36.98 61.64 37.89 61.56 38.8 61.1 38.3 60.65 37.8"/><polygon class="cls-6" points="61.57 34.56 62.22 34.37 62.87 34.18 62.47 35 62.06 35.82 61.81 35.19 61.57 34.56"/><polygon class="cls-6" points="63.6 31.87 64.28 31.93 64.95 31.99 64.27 32.61 63.6 33.22 63.6 32.55 63.6 31.87"/><polygon class="cls-6" points="66.47 30.09 67.07 30.4 67.68 30.7 66.83 31.03 65.97 31.36 66.22 30.73 66.47 30.09"/><polygon class="cls-6" points="69.78 29.48 70.24 29.98 70.69 30.48 69.78 30.48 68.86 30.48 69.32 29.98 69.78 29.48"/><path class="cls-7" d="M73.06,58.63a3.53,3.53,0,0,1-3.5,3.55H58.17a2.69,2.69,0,1,1,0-5.37,2.65,2.65,0,0,1,.63.08,4.89,4.89,0,0,1-.22-1.49,5.08,5.08,0,0,1,10.16-.17,3.18,3.18,0,0,1,.82-.1A3.5,3.5,0,0,1,73.06,58.63Z"/><path class="cls-8" d="M60,54.14a3.76,3.76,0,0,0,0,2.46"/><path class="cls-8" d="M60.54,52.84a2.56,2.56,0,0,1,1.21-.91"/><path class="cls-9" d="M53.29,55.37l-15,.06c-2.44,0-2.66-2-2-2.78a1.51,1.51,0,0,1,2.13,0,1.2,1.2,0,0,1,0,1.7"/><path class="cls-10" d="M51.74,53.77l-9.73,0c-2,0-2.2-1.67-1.61-2.3a1.26,1.26,0,0,1,1.76,0,1,1,0,0,1,0,1.4"/><path class="cls-9" d="M53.29,57.1l-15-.06c-2.44,0-2.66,2-2,2.78a1.51,1.51,0,0,0,2.13,0,1.2,1.2,0,0,0,0-1.7"/><path class="cls-10" d="M51.74,58.7,42,58.65c-2,0-2.2,1.67-1.61,2.3a1.26,1.26,0,0,0,1.76,0,1,1,0,0,0,0-1.4"/><path class="cls-4" d="M49.81,60c-1.32,0-3.52-.05-4.58-.05-2,0-2.19,1.67-1.6,2.3a1.23,1.23,0,0,0,1.75,0,1,1,0,0,0,0-1.4"/><path class="cls-4" d="M49.81,52.53c-1.32,0-3.52,0-4.58,0-2,0-2.19-1.67-1.6-2.29a1.23,1.23,0,0,1,1.75,0,1,1,0,0,1,0,1.41"/></g><g id="Layer_2" data-name="Layer 2"><path class="cls-11" d="M29.45,104l1.1-49.9-7.28,6.67S11.87,44.86,10,44.86l19.82-22,17.48-6s8,6,17.88,0l16.56,6.85L100,49.06S86.13,59.43,86.15,60.42l-6.82-6.3L80,104.9S31.43,106.44,29.45,104Z"/></g></svg>