<svg xmlns="http://www.w3.org/2000/svg" viewBox="0 0 108.4 122.22"><defs><style>.cls-1{fill:#fff;}.cls-1,.cls-2{stroke:#808285;stroke-width:4px;}.cls-1,.cls-10,.cls-11,.cls-12,.cls-2,.cls-3,.cls-4,.cls-6{stroke-linecap:round;stroke-linejoin:round;}.cls-2{fill:#e0e1e2;}.cls-3{fill:#5c5c5c;}.cls-10,.cls-11,.cls-12,.cls-3,.cls-4,.cls-5,.cls-6,.cls-7,.cls-9{stroke:#231f20;}.cls-10,.cls-11,.cls-12,.cls-4,.cls-6{fill:none;}.cls-4{stroke-width:0.62px;}.cls-5{fill:#27aae1;}.cls-5,.cls-7,.cls-9{stroke-miterlimit:10;}.cls-6{stroke-width:0.5px;}.cls-7{fill:#f6af2d;}.cls-8{fill:#231f20;}.cls-9{fill:#e6e7e8;}.cls-10{stroke-width:0.47px;}.cls-12{stroke-width:0.75px;}</style></defs><g id="Layer_2" data-name="Layer 2"><path class="cls-1" d="M100.79,49.06S86.92,59.41,86.92,60.42l-6.82-6.3.66,50.78S32.2,106.44,30.21,104l1.11-49.9L24,60.79S12.64,44.86,10.79,44.86l19.82-22,17.48-6s-.93,8.4,8.29,8.68S66,21.57,66,16.83l16.55,6.85Z"/><path class="cls-2" d="M66,16.83c0,4.74-.13,9-9.35,8.68s-8.53-8.68-8.53-8.68S56,22.79,66,16.83Z"/></g><g id="Layer_1" data-name="Layer 1"><path class="cls-3" d="M38.54,46a28.2,28.2,0,0,1,2,2.54,10.22,10.22,0,0,1,2.06-2.89s5.15-4.16,3.5-15.84c-1.54-2.18-12.27-1.31-13,3.93C33.21,38.8,36.67,43.7,38.54,46Z"/><path class="cls-4" d="M33.9,38s4.34,3.89,12.52-3.1"/><path class="cls-4" d="M36.15,42.65s3.31,3.22,9.44-2.21"/><path class="cls-4" d="M46.1,29.84c.59,2.12-1.67,4.25-5.58,5.59-3.13,1.07-6.26.61-7-1-.59-1.31,1-3.07,3.47-3.93,2-.68,4-.39,4.47.66.38.84-.62,2-2.22,2.52-1.28.43-2.56.24-2.86-.43s.39-1.25,1.42-1.6"/><path class="cls-5" d="M60.71,39.93a5.78,5.78,0,1,1-11.55,0c0-3.19,5.78-10.75,5.78-10.75S60.71,36.74,60.71,39.93Z"/><line class="cls-6" x1="56.38" y1="32.96" x2="57.56" y2="34.81"/><circle class="cls-7" cx="71.55" cy="38.65" r="7.21"/><polygon class="cls-8" points="74.86 30.09 75.11 30.73 75.35 31.36 74.5 31.03 73.64 30.7 74.25 30.4 74.86 30.09"/><polygon class="cls-8" points="77.72 31.87 77.73 32.55 77.73 33.22 77.05 32.61 76.38 31.99 77.05 31.93 77.72 31.87"/><polygon class="cls-8" points="79.75 34.56 79.51 35.19 79.27 35.82 78.86 35 78.45 34.18 79.1 34.37 79.75 34.56"/><polygon class="cls-8" points="80.68 37.8 80.22 38.3 79.77 38.8 79.68 37.89 79.6 36.98 80.14 37.39 80.68 37.8"/><polygon class="cls-8" points="80.37 41.16 79.76 41.46 79.16 41.76 79.41 40.88 79.66 40 80.01 40.58 80.37 41.16"/><polygon class="cls-8" points="78.86 44.17 78.19 44.24 77.52 44.3 78.07 43.57 78.62 42.84 78.74 43.51 78.86 44.17"/><polygon class="cls-8" points="76.37 46.44 75.72 46.26 75.07 46.08 75.85 45.59 76.63 45.11 76.5 45.78 76.37 46.44"/><polygon class="cls-8" points="73.23 47.66 72.69 47.25 72.15 46.85 73.05 46.68 73.95 46.51 73.59 47.08 73.23 47.66"/><polygon class="cls-8" points="69.86 47.66 69.5 47.08 69.14 46.51 70.05 46.68 70.95 46.85 70.4 47.25 69.86 47.66"/><polygon class="cls-8" points="66.72 46.44 66.59 45.78 66.47 45.11 67.25 45.59 68.02 46.08 67.37 46.26 66.72 46.44"/><polygon class="cls-8" points="64.23 44.17 64.35 43.51 64.47 42.84 65.03 43.57 65.58 44.3 64.9 44.24 64.23 44.17"/><polygon class="cls-8" points="62.73 41.16 63.08 40.58 63.44 40 63.69 40.88 63.94 41.76 63.33 41.46 62.73 41.16"/><polygon class="cls-8" points="62.42 37.8 62.96 37.39 63.5 36.98 63.41 37.89 63.33 38.8 62.87 38.3 62.42 37.8"/><polygon class="cls-8" points="63.34 34.56 63.99 34.37 64.64 34.18 64.23 35 63.83 35.82 63.58 35.19 63.34 34.56"/><polygon class="cls-8" points="65.37 31.87 66.04 31.93 66.72 31.99 66.04 32.61 65.36 33.22 65.37 32.55 65.37 31.87"/><polygon class="cls-8" points="68.23 30.09 68.84 30.4 69.45 30.7 68.59 31.03 67.74 31.36 67.99 30.73 68.23 30.09"/><polygon class="cls-8" points="71.55 29.48 72 29.98 72.46 30.48 71.55 30.48 70.63 30.48 71.09 29.98 71.55 29.48"/><path class="cls-9" d="M74.83,58.63a3.54,3.54,0,0,1-3.5,3.55H59.94a2.69,2.69,0,1,1,0-5.37,2.72,2.72,0,0,1,.63.08,4.89,4.89,0,0,1-.23-1.49,5.09,5.09,0,0,1,10.17-.17,3.18,3.18,0,0,1,.82-.1A3.5,3.5,0,0,1,74.83,58.63Z"/><path class="cls-10" d="M61.75,54.14a3.76,3.76,0,0,0,0,2.46"/><path class="cls-10" d="M62.31,52.84a2.56,2.56,0,0,1,1.21-.91"/><path class="cls-11" d="M55.06,55.37l-15,.06c-2.44,0-2.65-2-1.94-2.78a1.51,1.51,0,0,1,2.13,0,1.2,1.2,0,0,1,0,1.7"/><path class="cls-12" d="M53.5,53.77l-9.72,0c-2,0-2.2-1.67-1.61-2.3a1.26,1.26,0,0,1,1.76,0,1,1,0,0,1,0,1.4"/><path class="cls-11" d="M55.06,57.1l-15-.06c-2.44,0-2.65,2-1.94,2.78a1.51,1.51,0,0,0,2.13,0,1.2,1.2,0,0,0,0-1.7"/><path class="cls-12" d="M53.5,58.7l-9.72-.05c-2,0-2.2,1.67-1.61,2.3a1.26,1.26,0,0,0,1.76,0,1,1,0,0,0,0-1.4"/><path class="cls-6" d="M51.58,60c-1.32,0-3.52-.05-4.58-.05-2,0-2.2,1.67-1.61,2.3a1.25,1.25,0,0,0,1.76,0,1,1,0,0,0,0-1.4"/><path class="cls-6" d="M51.58,52.53c-1.32,0-3.52,0-4.58,0-2,0-2.2-1.67-1.61-2.29a1.25,1.25,0,0,1,1.76,0,1,1,0,0,1,0,1.41"/></g></svg>