<svg xmlns="http://www.w3.org/2000/svg" viewBox="0 0 108.4 122.22"><defs><style>.cls-1{fill:#f6af2d;stroke:#231f20;stroke-miterlimit:10;stroke-width:1.94px;}.cls-2{fill:#231f20;}</style></defs><g id="Layer_1" data-name="Layer 1"><circle class="cls-1" cx="51.42" cy="60.47" r="23.47"/><polygon class="cls-2" points="62.21 32.63 63.01 34.68 63.81 36.73 61.03 35.66 58.25 34.58 60.23 33.6 62.21 32.63"/><polygon class="cls-2" points="71.54 38.4 71.55 40.61 71.55 42.81 69.35 40.8 67.14 38.8 69.34 38.6 71.54 38.4"/><polygon class="cls-2" points="78.15 47.16 77.36 49.22 76.57 51.28 75.24 48.61 73.91 45.94 76.03 46.55 78.15 47.16"/><polygon class="cls-2" points="81.15 57.71 79.67 59.35 78.19 60.98 77.92 58.01 77.64 55.04 79.4 56.38 81.15 57.71"/><polygon class="cls-2" points="80.14 68.64 78.17 69.63 76.2 70.62 77.01 67.75 77.83 64.88 78.99 66.76 80.14 68.64"/><polygon class="cls-2" points="75.25 78.46 73.06 78.67 70.86 78.88 72.66 76.5 74.45 74.12 74.85 76.29 75.25 78.46"/><polygon class="cls-2" points="67.14 85.85 65.02 85.26 62.89 84.66 65.43 83.09 67.97 81.52 67.55 83.69 67.14 85.85"/><polygon class="cls-2" points="56.91 89.82 55.15 88.49 53.38 87.17 56.31 86.62 59.24 86.07 58.08 87.95 56.91 89.82"/><polygon class="cls-2" points="45.94 89.82 44.77 87.95 43.6 86.07 46.53 86.62 49.47 87.17 47.7 88.49 45.94 89.82"/><polygon class="cls-2" points="35.7 85.85 35.29 83.69 34.88 81.52 37.42 83.09 39.95 84.66 37.83 85.26 35.7 85.85"/><polygon class="cls-2" points="27.59 78.46 27.99 76.29 28.39 74.12 30.19 76.5 31.99 78.88 29.79 78.67 27.59 78.46"/><polygon class="cls-2" points="22.7 68.64 23.86 66.76 25.02 64.88 25.83 67.75 26.65 70.62 24.68 69.63 22.7 68.64"/><polygon class="cls-2" points="21.69 57.71 23.45 56.38 25.2 55.04 24.93 58.01 24.65 60.98 23.17 59.35 21.69 57.71"/><polygon class="cls-2" points="24.69 47.16 26.81 46.55 28.93 45.94 27.61 48.61 26.27 51.28 25.48 49.22 24.69 47.16"/><polygon class="cls-2" points="31.31 38.4 33.5 38.6 35.7 38.8 33.5 40.8 31.29 42.81 31.3 40.61 31.31 38.4"/><polygon class="cls-2" points="40.64 32.63 42.61 33.6 44.59 34.58 41.81 35.66 39.03 36.73 39.83 34.68 40.64 32.63"/><polygon class="cls-2" points="51.42 30.61 52.91 32.23 54.41 33.86 51.42 33.86 48.44 33.86 49.93 32.23 51.42 30.61"/></g></svg>