<svg xmlns="http://www.w3.org/2000/svg" viewBox="0 0 108.4 122.22"><defs><style>.cls-1,.cls-3,.cls-4,.cls-5,.cls-8,.cls-9{fill:none;}.cls-1,.cls-2,.cls-3,.cls-4,.cls-5,.cls-6,.cls-7{stroke:#808285;}.cls-1,.cls-2{stroke-miterlimit:10;}.cls-1,.cls-2,.cls-4{stroke-width:2px;}.cls-2,.cls-7{fill:#e0e1e2;}.cls-3,.cls-4,.cls-5,.cls-6,.cls-7,.cls-8,.cls-9{stroke-linecap:round;stroke-linejoin:round;}.cls-3{stroke-width:0.95px;}.cls-5{stroke-width:1.26px;}.cls-6{fill:#bfbfbf;}.cls-8,.cls-9{stroke:#231f20;}.cls-9{stroke-width:1.04px;}</style></defs><g id="Layer_1" data-name="Layer 1"><path class="cls-1" d="M81.61,45.59c-1.16-5.43-14.84-10-14.84-10,1.87-2,1.16-6.57,1.16-6.57a10.69,10.69,0,0,0-6.22-9.26C55.4,16.74,48,19.8,48,19.8s-6,3.95-6,8.5a16.68,16.68,0,0,0,1.35,7.16S31.7,40.88,30.34,42.73c-3.21,5.06-5.67,30.09-5.43,34.16S36.64,93.17,36.64,93.17s0,9.37-.75,11.21S39,108.09,55,108.59s19.11-2.72,19.11-2.72c1.22,1.39.56-12.86.56-12.86,5-4,11.75-12.16,11.73-15.72C86.85,67.88,82.76,51,81.61,45.59ZM43.41,95.06c-.88.72-4.17,1.69-4.79-1.5,0,0-.18-4.27,4.79-3.56C45.55,90.53,44.3,94.35,43.41,95.06ZM73,94.16A16.42,16.42,0,0,0,71.6,95.5a3.38,3.38,0,0,1-2.17.28c-1.91-.72-1.67-1.61-1.67-1.61s-.89-2.77.74-4v0c.74-.53,2-.74,4-.25C73.74,90.53,73.88,92.64,73,94.16Z"/><path class="cls-2" d="M43.41,95.06c-.88.72-4.17,1.69-4.79-1.5,0,0-.18-4.27,4.79-3.56C45.55,90.53,44.3,94.35,43.41,95.06Z"/><path class="cls-2" d="M73,94.16A16.42,16.42,0,0,0,71.6,95.5a3.38,3.38,0,0,1-2.17.28c-1.91-.72-1.67-1.61-1.67-1.61s-.89-2.77.74-4v0c.74-.53,2-.74,4-.25C73.74,90.53,73.88,92.64,73,94.16Z"/><path class="cls-3" d="M73,94.16A3.39,3.39,0,0,1,71.6,95.5,16.42,16.42,0,0,1,73,94.16Z"/><path class="cls-4" d="M68.51,90.17a14.31,14.31,0,0,0,2.62-4.4c1.13-2.13,3.44-5.33,3.73-6.57a6.66,6.66,0,0,1-1.3-3.79c.11-1.89.59-6.57-.66-9.94a27.22,27.22,0,0,1-.77,7.15s1.34,7.52,1,9.55"/><path class="cls-3" d="M71.6,95.5l0,0"/><path class="cls-3" d="M73,94.16a10.65,10.65,0,0,1,1.62-1.23"/><path class="cls-5" d="M38.84,94.7a5.13,5.13,0,0,1-2.21-1.53"/><path class="cls-4" d="M44.23,90.53a37.65,37.65,0,0,1-2.7-5.5c-.65-2-1.73-4.32-3.82-5-1-.5-1.36-8.34-.79-10.72,0,0,2.2,1.64,1.69,9.27a5,5,0,0,1-.46,1.56"/><path class="cls-6" d="M63.65,29.63c-1.62,1-4,.82-4.45,1.26s-4.26.39-4.26.39-5.41-.21-7.23-.9a11,11,0,0,1-1.42-.76V27.78s4-1.2,4.2-1.41,7.16,0,7.16,0a14.06,14.06,0,0,0,2.11.47A32.43,32.43,0,0,1,63.36,28Z"/><path class="cls-7" d="M64.34,29.09a2.75,2.75,0,0,1-.69.54l-.29-1.76a30.45,30.45,0,0,0-3.6-1.18,15.1,15.1,0,0,1-2.11-.48s-6.9-.21-7.16,0-4.2,1.41-4.2,1.41v2a2.63,2.63,0,0,1-1.14-.89c-.25-.39.34-3.85,5.62-5.24s9.11.09,10.11.66S65.87,27.46,64.34,29.09Z"/><line class="cls-8" x1="28.65" y1="25.33" x2="28.65" y2="37.03"/><line class="cls-8" x1="36.1" y1="19.34" x2="36.1" y2="33.33"/><line class="cls-8" x1="41.03" y1="11.32" x2="41.03" y2="19.34"/><line class="cls-8" x1="49.69" y1="8.26" x2="49.69" y2="14.26"/><line class="cls-8" x1="65.88" y1="7.62" x2="65.88" y2="14.9"/><line class="cls-8" x1="72.72" y1="23.12" x2="72.72" y2="32.64"/><line class="cls-8" x1="76.94" y1="19.2" x2="76.94" y2="34.24"/><line class="cls-8" x1="83.64" y1="27" x2="83.64" y2="39.56"/><path class="cls-9" d="M28,41.34s-1.06-1.06-1.38-.91"/><path class="cls-9" d="M30,39.74s.16-1.91,1.06-2.39"/><path class="cls-9" d="M36.1,36.42A4.1,4.1,0,0,0,34.66,34"/><path class="cls-9" d="M37.27,35.83a4.08,4.08,0,0,1,.26-2.23"/><path class="cls-9" d="M77.24,37.87a4.06,4.06,0,0,1,1.43-2.45"/><path class="cls-9" d="M76.07,37.29a4.16,4.16,0,0,0-.27-2.24"/><path class="cls-9" d="M40.12,22s.85.37.91.69"/><path class="cls-9" d="M41.93,21.4s.2-1.81,1.35-2.34"/><path class="cls-9" d="M73.62,34.76s-.85.38-.9.69"/><path class="cls-9" d="M71.81,34.18s-.2-1.81-1.35-2.34"/><path class="cls-9" d="M47.21,15.12a15.88,15.88,0,0,1,1.71,1"/><path class="cls-9" d="M50.41,16.08a9.85,9.85,0,0,1,1.86-1.92"/><path class="cls-9" d="M81.43,40.05a17.32,17.32,0,0,1,1.48,1.28"/><path class="cls-9" d="M84.36,41.64a9.87,9.87,0,0,1,2.22-1.5"/><path class="cls-9" d="M65,17.49s.54.76.48,1.18"/><path class="cls-9" d="M66.59,18.6s.14-3.6,1.09-4.34"/></g></svg>