<svg xmlns="http://www.w3.org/2000/svg" viewBox="0 0 108.4 122.22"><defs><style>.cls-1,.cls-2,.cls-3{fill:none;stroke:#231f20;stroke-linecap:round;stroke-linejoin:round;}.cls-1{stroke-width:3px;}.cls-2{stroke-width:2px;}.cls-3{stroke-width:1.5px;}</style></defs><g id="Layer_1" data-name="Layer 1"><path class="cls-1" d="M89.5,61.81c-6.73,0-57.71.26-63.07.26-10.26,0-11.17-8.52-8.17-11.68a6.33,6.33,0,0,1,8.94-.23,5.06,5.06,0,0,1,.18,7.15"/><path class="cls-2" d="M82.94,55.1c-5.56,0-36.51.21-40.95.21-8.5,0-9.25-7.05-6.76-9.67a5.23,5.23,0,0,1,7.4-.19,4.2,4.2,0,0,1,.15,5.92"/><path class="cls-1" d="M89.5,69.14c-6.73,0-57.71-.25-63.07-.26-10.26,0-11.17,8.52-8.17,11.68a6.33,6.33,0,0,0,8.94.23,5.06,5.06,0,0,0,.18-7.15"/><path class="cls-2" d="M82.94,75.85c-5.56,0-36.51-.21-40.95-.21-8.5,0-9.25,7-6.76,9.67a5.23,5.23,0,0,0,7.4.19,4.2,4.2,0,0,0,.15-5.92"/><path class="cls-3" d="M74.85,81.16C69.29,81.16,60,81,55.56,81c-8.5,0-9.25,7-6.76,9.67a5.23,5.23,0,0,0,7.4.19,4.2,4.2,0,0,0,.15-5.92"/><path class="cls-3" d="M74.85,49.88c-5.56,0-14.85.21-19.29.21-8.5,0-9.25-7.05-6.76-9.67a5.24,5.24,0,0,1,7.4-.19,4.2,4.2,0,0,1,.15,5.92"/></g></svg>